<svg width="32" height="44" viewBox="0 0 32 44" fill="none" xmlns="http://www.w3.org/2000/svg">
<path d="M7.88517 27.6937C7.16997 27.6479 6.44938 27.6636 5.73732 27.7401C5.42744 27.7736 5.09381 27.8302 4.88558 28.0303C4.71648 28.1934 4.6637 28.4208 4.63271 28.6379C4.51323 29.4728 4.62131 30.331 4.94532 31.1243C5.00506 31.2704 5.0781 31.4212 5.22154 31.5141C5.37945 31.6165 5.59013 31.6281 5.7875 31.6329C6.79845 31.654 7.81213 31.5817 8.80498 31.4165C9.10073 30.5952 9.23222 29.7309 9.19194 28.872C9.17883 28.5894 9.14313 28.2965 8.97327 28.0548C8.80335 27.8132 8.46418 27.6384 7.88517 27.6937Z" fill="#ABCC52"/>
<path d="M7.08311 28.0043C6.64495 28.0043 6.20706 28.0275 5.77348 28.0739C5.52354 28.1012 5.25046 28.1456 5.11877 28.2726C5.02271 28.3648 4.98837 28.5259 4.96543 28.6856C4.85449 29.4605 4.95526 30.2599 5.2566 30.9973C5.30303 31.1106 5.34597 31.1946 5.40461 31.2321C5.4937 31.2901 5.68227 31.2943 5.79478 31.2963C6.71779 31.3161 7.6445 31.2553 8.55276 31.1167C8.78959 30.391 8.89173 29.6414 8.85657 28.8877C8.84564 28.657 8.81895 28.4194 8.69838 28.248C8.57331 28.0698 8.29518 27.9913 7.91758 28.0282L7.86399 28.0289C7.60449 28.0125 7.3439 28.0043 7.08311 28.0043ZM6.13347 31.9722C6.01584 31.9722 5.89828 31.9708 5.78065 31.9688C5.54225 31.9633 5.26889 31.9455 5.03875 31.796C4.82111 31.6547 4.71235 31.4417 4.63446 31.2512C4.28805 30.4033 4.17226 29.4837 4.3 28.5901C4.33816 28.3252 4.40964 28.0227 4.65234 27.7886C4.92938 27.5216 5.32037 27.4472 5.70145 27.4063C6.42225 27.3284 7.15568 27.312 7.88078 27.3571C8.71122 27.2861 9.0936 27.6411 9.2483 27.8616C9.46806 28.1743 9.51312 28.5395 9.5278 28.8563C9.5702 29.7636 9.43338 30.6634 9.12112 31.5305C9.08002 31.6452 8.98 31.7278 8.86025 31.7476C7.96373 31.8971 7.04788 31.9722 6.13347 31.9722Z" fill="black"/>
<path d="M24.8114 27.6937C24.0959 27.6479 23.3757 27.6636 22.6636 27.7401C22.3537 27.7736 22.0198 27.8302 21.8116 28.0303C21.643 28.1934 21.5897 28.4208 21.559 28.6379C21.4395 29.4728 21.5474 30.331 21.8717 31.1243C21.9311 31.2704 22.0048 31.4212 22.1475 31.5141C22.3052 31.6165 22.5162 31.6281 22.7141 31.6329C23.7245 31.654 24.7384 31.5817 25.731 31.4165C26.0266 30.5952 26.1584 29.7309 26.1181 28.872C26.1051 28.5894 26.0696 28.2965 25.8996 28.0548C25.7296 27.8132 25.3903 27.6384 24.8114 27.6937Z" fill="#ABCC52"/>
<path d="M24.009 28.0043C23.5714 28.0043 23.1331 28.0275 22.6996 28.0739C22.4497 28.1012 22.1766 28.1456 22.0449 28.2726C21.9486 28.3648 21.9138 28.5259 21.8913 28.6856C21.7807 29.4605 21.881 30.2599 22.1828 30.9973C22.2292 31.1106 22.2722 31.1946 22.3302 31.2321C22.4197 31.2901 22.6081 31.2943 22.7207 31.2963C23.6431 31.3154 24.5709 31.2553 25.4789 31.1167C25.7158 30.3903 25.8175 29.6414 25.7827 28.8877C25.7717 28.657 25.7451 28.4194 25.6243 28.248C25.4993 28.0698 25.2215 27.9913 24.8433 28.0282L24.79 28.0289C24.5306 28.0125 24.2698 28.0043 24.009 28.0043ZM23.0594 31.9722C22.9419 31.9722 22.8245 31.9708 22.7064 31.9688C22.4681 31.9633 22.1951 31.9455 21.965 31.796C21.7472 31.6547 21.638 31.4417 21.5601 31.2512C21.214 30.404 21.0986 29.4837 21.2263 28.5907C21.2638 28.3252 21.3355 28.0227 21.5786 27.7886C21.8551 27.5216 22.2463 27.4472 22.6279 27.4063C23.3488 27.3284 24.0814 27.312 24.8064 27.3571C25.6366 27.284 26.0196 27.6411 26.1739 27.8616C26.3944 28.1743 26.4387 28.5395 26.4538 28.8563C26.4961 29.7636 26.3596 30.6634 26.0469 31.5305C26.0059 31.6452 25.9062 31.7278 25.7861 31.7476C24.8897 31.8971 23.9742 31.9722 23.0594 31.9722Z" fill="black"/>
<path d="M16.2041 43.0115C13.9805 43.0115 11.7396 42.8777 9.53758 42.6121C7.12709 42.3213 4.42188 41.7976 2.63586 40.1161C1.11957 38.6886 0.617101 36.7238 0.348798 35.1713C0.040284 33.386 -0.0642349 31.5659 0.0378976 29.7629C0.0472506 29.5922 0.183993 29.4564 0.354669 29.4462C1.72301 29.3704 3.03859 29.296 4.35409 29.2209C4.54135 29.2147 4.69838 29.3519 4.70909 29.5376C4.71974 29.7227 4.57788 29.881 4.39252 29.892C3.17349 29.9616 1.95452 30.0306 0.693633 30.1009C0.621676 31.7544 0.728314 33.4202 1.01102 35.0566C1.26144 36.506 1.72492 38.3356 3.09668 39.6273C4.74084 41.175 7.31586 41.6672 9.61815 41.9451C11.889 42.2189 14.2024 42.3486 16.4924 42.339C19.1191 42.3254 21.0614 42.111 22.792 41.6447C24.3226 41.2323 26.4561 40.3892 27.9239 38.7173C29.9816 36.3715 30.0771 33.2024 29.9379 29.8687L26.2588 29.8742H26.2581C26.0731 29.8742 25.9222 29.724 25.9222 29.5383C25.9222 29.3526 26.0724 29.2024 26.2574 29.2024L30.256 29.1963C30.4356 29.1963 30.5864 29.3376 30.5946 29.5172C30.7592 33.1102 30.7175 36.5517 28.4291 39.1603C26.8507 40.9586 24.5875 41.857 22.9668 42.294C20.6749 42.9111 18.3046 43.0012 16.4958 43.0108C16.3988 43.0115 16.3012 43.0115 16.2041 43.0115Z" fill="white"/>
<path d="M27.6145 11.499L27.5503 11.4929C27.368 11.4574 27.2486 11.2812 27.2841 11.099C27.7326 8.77981 27.0806 6.3487 25.4967 4.42894C25.3786 4.28557 25.3991 4.07392 25.5418 3.95582C25.6852 3.83771 25.8968 3.8582 26.0149 4.00089C27.7271 6.0763 28.4303 8.71016 27.9435 11.2266C27.9128 11.387 27.7722 11.499 27.6145 11.499Z" fill="white"/>
<path d="M31.4395 11.8591L31.3665 11.8516C31.1855 11.8114 31.0708 11.6325 31.1111 11.4509C31.8894 7.91925 30.5438 4.1364 27.5979 1.57831C27.458 1.45611 27.443 1.24379 27.5652 1.10384C27.6867 0.963884 27.899 0.949549 28.039 1.07039C31.1698 3.79028 32.5987 7.82368 31.7672 11.5956C31.7324 11.7526 31.5938 11.8591 31.4395 11.8591Z" fill="white"/>
<path d="M9.03895 23.3529C8.88828 18.2354 8.65151 15.28 8.85974 10.968C8.92221 9.67838 9.09527 8.66729 10.1111 7.65279C11.2175 6.54749 12.1802 5.7972 13.9371 5.52821C15.9236 5.22441 19.0533 5.45107 20.5867 6.4881C22.1535 7.54765 21.9132 9.24008 21.9678 10.8629C22.077 14.1009 21.9692 22.0927 21.8265 23.5338C21.7814 23.994 21.3745 26.3882 21.1206 26.8047C20.6406 27.5898 19.5346 28.0131 18.4607 28.2295C15.022 28.9231 9.12087 26.137 9.03895 23.3529Z" fill="white"/>
<path d="M15.7157 5.73972C15.1008 5.73972 14.509 5.78068 13.9877 5.86056C12.3831 6.10565 11.503 6.73647 10.3485 7.89024C9.45699 8.78116 9.26051 9.63113 9.19517 10.9843C9.04047 14.193 9.13407 16.6773 9.25245 19.8218C9.29301 20.8957 9.33677 22.0502 9.37459 23.3432C9.39678 24.0963 9.95332 24.9435 10.9414 25.7286C13.0103 27.3719 16.2838 28.3263 18.3944 27.9003C19.2594 27.7255 20.3852 27.3637 20.8337 26.6291C21.0242 26.3178 21.4345 24.0805 21.4918 23.5002C21.6332 22.0693 21.7424 14.154 21.6318 10.8743C21.6243 10.6436 21.6222 10.4121 21.6202 10.1807C21.6086 8.7839 21.599 7.57824 20.3988 6.76651C19.3618 6.06537 17.4475 5.73972 15.7157 5.73972ZM17.3253 28.6697C15.1349 28.6697 12.3705 27.7214 10.5235 26.255C9.36101 25.3313 8.73162 24.3311 8.70288 23.3623C8.66499 22.072 8.6215 20.9189 8.58095 19.8471C8.46175 16.6862 8.3676 14.1895 8.52415 10.9522C8.58259 9.73969 8.72978 8.55724 9.87358 7.41508C11.1035 6.18553 12.1073 5.46869 13.886 5.19629C16.047 4.86518 19.215 5.15463 20.775 6.20941C22.2681 7.21913 22.2804 8.72245 22.2926 10.1752C22.294 10.4005 22.2961 10.6265 22.3036 10.8511C22.4148 14.1493 22.3036 22.1205 22.1609 23.5665C22.122 23.9597 21.7185 26.4693 21.4072 26.9793C20.945 27.7351 19.9762 28.2669 18.5275 28.5591C18.1561 28.6335 17.7513 28.6697 17.3253 28.6697Z" fill="black"/>
<path d="M22.9594 23.5229C23.0482 25.8189 22.7642 35.3849 20.7611 37.2009C18.6338 39.1302 12.8059 39.1015 10.6191 37.3804C8.25125 35.5167 7.2926 26.761 7.79391 23.2915C11.9981 23.3837 18.5935 23.3912 22.9594 23.5229Z" fill="#ABCC52"/>
<path d="M8.08912 23.634C7.69657 27.1759 8.6697 35.4182 10.8272 37.1168C12.9718 38.8044 18.5976 38.7095 20.5358 36.9515C22.2221 35.423 22.7109 27.1602 22.6338 23.8498C20.1747 23.7801 17.0855 23.7474 14.0932 23.7153C11.8995 23.6914 9.82046 23.6689 8.08912 23.634ZM15.5343 38.988C13.5409 38.988 11.5563 38.5457 10.4114 37.6445C7.8017 35.5902 6.99393 26.4782 7.46138 23.2435C7.48568 23.0756 7.62994 22.9486 7.80116 22.9554C9.58657 22.9943 11.7792 23.0182 14.1004 23.0428C17.2254 23.0769 20.4566 23.1111 22.9697 23.1876C23.1465 23.1923 23.2885 23.3337 23.2953 23.5105C23.3533 25.0111 23.223 35.4223 20.9871 37.4499C19.8627 38.4692 17.6937 38.988 15.5343 38.988Z" fill="black"/>
<path d="M14.0575 29.2195C13.483 29.5048 13.1351 30.0503 13.1873 30.5821C13.2399 31.1146 13.6905 31.611 14.314 31.824C15.0399 32.0711 15.9648 31.9045 16.4662 31.4232C16.9671 30.9426 16.9869 30.1855 16.4952 29.698C16.0037 29.2113 14.9108 28.7962 14.0575 29.2195Z" fill="#ABCC52"/>
<path d="M14.2066 29.5204C13.7582 29.743 13.4828 30.1567 13.5215 30.5492C13.5612 30.9513 13.923 31.3357 14.422 31.5057C15.0317 31.7132 15.8269 31.5705 16.233 31.1807C16.4142 31.0073 16.5149 30.782 16.5168 30.5472C16.5187 30.3205 16.4269 30.1041 16.2584 29.9368C15.8541 29.5361 14.9159 29.1688 14.2066 29.5204ZM15.0317 32.2744C14.7503 32.2744 14.4687 32.2314 14.2052 32.1413C13.4497 31.8839 12.9187 31.2852 12.8529 30.6154C12.787 29.9464 13.2108 29.2644 13.9079 28.9189C14.9549 28.3987 16.1893 28.9223 16.7315 29.4596C17.0296 29.7552 17.1921 30.1437 17.1887 30.5526C17.1853 30.9705 17.0112 31.3657 16.6984 31.6654C16.2898 32.0573 15.6624 32.2744 15.0317 32.2744Z" fill="black"/>
<path d="M9.19915 21.7388L9.08746 21.6302C9.08555 21.5688 9.13408 21.5169 9.19594 21.5148C13.3503 21.3858 17.5614 21.3592 21.7136 21.437C21.775 21.4384 21.8242 21.4896 21.8235 21.5517C21.8221 21.6132 21.7702 21.6562 21.7095 21.6609C17.5614 21.5838 13.3538 21.6091 9.2029 21.7388H9.19915Z" fill="black"/>
<path d="M21.9436 9.11377H21.9382L19.2428 8.99088C19.1814 8.98883 19.1336 8.93558 19.1363 8.87414C19.1391 8.81201 19.1937 8.75878 19.2531 8.76765L21.9484 8.89052C22.0105 8.89257 22.0583 8.94515 22.0549 9.00728L21.9436 9.11377Z" fill="black"/>
<path d="M21.7024 10.7432L21.6956 10.7425L18.8412 10.5752C18.7791 10.5718 18.732 10.5186 18.7361 10.4571C18.7395 10.395 18.7941 10.3445 18.8542 10.3513L21.7093 10.5192C21.7707 10.5226 21.8178 10.5759 21.8144 10.6373L21.7024 10.7432Z" fill="black"/>
<path d="M21.7168 12.5439H21.7134L18.8181 12.4477C18.756 12.4456 18.7075 12.3938 18.7095 12.3316C18.7116 12.2702 18.7662 12.2244 18.8256 12.2238L21.7209 12.32C21.7824 12.3221 21.8309 12.374 21.8288 12.4361L21.7168 12.5439Z" fill="black"/>
<path d="M21.7531 14.4111L18.797 14.4098C18.7349 14.4098 18.6851 14.3599 18.6851 14.2978C18.6851 14.2357 18.7349 14.1858 18.797 14.1858L21.7531 14.1865C21.8152 14.1865 21.8651 14.237 21.8651 14.2985C21.8651 14.3606 21.8152 14.4111 21.7531 14.4111Z" fill="black"/>
<path d="M19.0631 16.3826C19.0017 16.3826 18.9519 16.3327 18.9512 16.2713C18.9512 16.2092 19.001 16.1587 19.0625 16.1587L21.7694 16.1436H21.7701C21.8315 16.1436 21.8813 16.1935 21.882 16.2549C21.882 16.317 21.8322 16.3676 21.7701 16.3676L19.0638 16.3826H19.0631Z" fill="black"/>
<path d="M19.2262 18.3857C19.1641 18.3857 19.1143 18.3359 19.1143 18.2745C19.1136 18.2123 19.1641 18.1618 19.2255 18.1618L21.828 18.155H21.8287C21.8901 18.155 21.94 18.2048 21.9407 18.2663C21.9407 18.3284 21.8908 18.3782 21.8287 18.3789L19.2262 18.3857Z" fill="black"/>
<path d="M19.5001 20.189L19.3881 20.0872C19.3827 20.0258 19.4284 19.9712 19.4899 19.9657C20.275 19.8954 21.071 19.8913 21.8568 19.9541C21.9182 19.9589 21.964 20.0128 21.9592 20.0743C21.9544 20.1364 21.9019 20.1828 21.839 20.1774C21.0662 20.1159 20.2825 20.12 19.5097 20.189H19.5001Z" fill="black"/>
<path d="M6.13236 31.2998C6.01985 31.2998 5.90734 31.2991 5.79503 31.2964C5.68252 31.2944 5.49396 31.2902 5.40487 31.2322C5.34622 31.1947 5.30328 31.1107 5.25686 30.9974C5.16804 30.7796 5.09663 30.557 5.04297 30.3311C5.15657 30.2403 5.29605 30.172 5.44249 30.1331C5.51772 30.1126 5.59261 30.1051 5.66785 30.1051C5.86119 30.1051 6.05398 30.1563 6.2476 30.1768C6.71457 30.2061 6.4591 30.2423 7.24073 30.2573C7.34313 30.2225 7.45141 30.2068 7.55941 30.2068C7.60017 30.2068 7.64127 30.2089 7.68182 30.2136C7.72818 30.5468 7.77965 30.8793 7.8357 31.2097C7.27083 31.2698 6.70146 31.2998 6.13236 31.2998Z" fill="#66A4A0"/>
<path d="M7.54724 31.8135C7.49467 31.8135 7.4419 31.8094 7.3896 31.8012C6.82296 31.7848 6.25413 31.7964 5.69138 31.7193C5.68394 31.7193 5.67677 31.7193 5.66953 31.7193C5.1375 31.7193 4.65879 31.2612 4.77082 30.8038C4.78174 30.6174 4.88845 30.4535 5.04281 30.3306C5.09647 30.5566 5.16788 30.7792 5.2567 30.997C5.30312 31.1103 5.34606 31.1943 5.40471 31.2318C5.4938 31.2898 5.68237 31.294 5.79488 31.296C5.90718 31.2987 6.01969 31.2994 6.1322 31.2994C6.7013 31.2994 7.27068 31.2694 7.83555 31.2093C7.86593 31.3875 7.89795 31.5657 7.93126 31.7425C7.8107 31.7882 7.67976 31.8135 7.54724 31.8135Z" fill="black"/>
<path d="M8.50472 31.083C8.4837 30.9588 8.46287 30.8338 8.44287 30.7089C8.46875 30.769 8.485 30.8325 8.49012 30.8994C8.505 30.9622 8.50957 31.0229 8.50472 31.083Z" fill="#66A4A0"/>
<path d="M7.93124 31.7424C7.89792 31.5656 7.8659 31.3874 7.83552 31.2093C7.77947 30.8788 7.728 30.5463 7.68164 30.2132C8.015 30.2507 8.32618 30.4371 8.44272 30.7088C8.46272 30.8338 8.48354 30.9587 8.50457 31.0829C8.48218 31.3745 8.24112 31.625 7.93124 31.7424Z" fill="black"/>
<path d="M23.058 31.2998C23.002 31.2998 22.9453 31.2998 22.8887 31.2991C22.944 30.8485 22.9924 30.3939 23.0348 29.9426C23.0785 29.9405 23.1222 29.9399 23.1665 29.9399C23.3106 29.9399 23.458 29.9487 23.6055 29.9576C23.7537 29.9665 23.9011 29.976 24.0452 29.976C24.1367 29.976 24.2268 29.972 24.3148 29.9624C24.3442 29.9638 24.3742 29.9644 24.4043 29.9644C24.5012 29.9644 24.6002 29.959 24.6992 29.9542C24.7982 29.9487 24.8972 29.9433 24.9948 29.9433C25.2577 29.9433 25.5089 29.9815 25.7117 30.1576C25.6598 30.4806 25.5826 30.8008 25.4795 31.1168C24.6815 31.239 23.869 31.2998 23.058 31.2998Z" fill="#66A4A0"/>
<path d="M23.4364 31.5364C23.2841 31.5364 23.1319 31.533 22.9796 31.5234C22.9755 31.5234 22.9721 31.5234 22.968 31.5234C22.9312 31.5234 22.8957 31.5214 22.8608 31.5186C22.8704 31.4456 22.8793 31.3718 22.8881 31.2988C22.9448 31.2995 23.0015 31.2995 23.0575 31.2995C23.8685 31.2995 24.6809 31.2387 25.479 31.1165C25.5821 30.8004 25.6592 30.4802 25.7111 30.1573C25.7152 30.1607 25.7193 30.1641 25.7227 30.1676C26.301 30.6468 25.862 31.5159 25.0987 31.5159C25.0557 31.5159 25.0114 31.5132 24.9656 31.5077C24.9042 31.5063 24.8427 31.5056 24.7813 31.5056C24.5574 31.5056 24.3334 31.5131 24.1102 31.5207C23.8856 31.5289 23.661 31.5364 23.4364 31.5364Z" fill="black"/>
<path d="M22.2321 31.1831C21.9932 30.8697 22.0041 30.4151 22.3475 30.1509C22.3127 30.4963 22.2738 30.8424 22.2321 31.1831Z" fill="#66A4A0"/>
<path d="M22.8612 31.5188C22.5813 31.4915 22.3669 31.3597 22.2324 31.1829C22.2741 30.8422 22.313 30.4961 22.3478 30.1507C22.4243 30.0919 22.5164 30.0435 22.6257 30.0073C22.7547 29.967 22.8926 29.9486 23.0346 29.9424C22.9923 30.3937 22.9438 30.8484 22.8885 31.299C22.8796 31.372 22.8707 31.4457 22.8612 31.5188Z" fill="black"/>
<path d="M10.0339 37.2854C9.86776 37.1414 9.7102 36.9898 9.56164 36.8321C9.4096 36.7071 9.33949 36.5569 9.33013 36.4061L9.17946 36.2682C8.92557 36.0593 8.89683 35.7794 9.00428 35.5452C9.30372 36.2532 9.64643 36.8512 10.0339 37.2854Z" fill="#DEDEDE"/>
<path d="M15.5418 38.3281C13.6967 38.3281 11.8587 37.9287 10.8269 37.117C10.3416 36.7347 9.91621 36.0213 9.55273 35.1051C9.61083 35.0914 9.67139 35.0846 9.73379 35.0846C9.83728 35.0846 9.94556 35.1044 10.0549 35.1495C10.2855 35.2088 10.4099 35.4041 10.5768 35.54C11.2256 36.052 11.1531 36.0192 11.708 36.3107C12.1009 36.5087 12.9095 36.6808 13.8412 36.9081C13.9636 36.9402 14.3461 36.9975 14.4559 37.016C14.6039 37.0235 14.7461 37.0276 14.8847 37.0276C16.0197 37.0276 16.8941 36.7784 18.3735 36.4589C18.5107 36.4418 19.0623 36.2616 19.263 36.196L19.3982 36.1442C19.4965 36.1073 19.5914 36.0615 19.6897 36.0267C19.8188 35.9584 19.9355 35.8957 19.9881 35.8683C20.1587 35.7441 20.311 35.5959 20.537 35.5495C20.6107 35.5304 20.6851 35.5208 20.7575 35.5208C20.95 35.5208 21.133 35.585 21.2791 35.6874C21.0626 36.2588 20.8155 36.6985 20.5356 36.9518C19.53 37.8639 17.5317 38.3281 15.5418 38.3281Z" fill="#66A4A0"/>
<path d="M14.1468 38.7476C13.1643 38.7476 12.1835 38.5414 11.3101 38.1536C10.8448 37.914 10.4167 37.6184 10.034 37.2852C9.64654 36.851 9.30383 36.253 9.00439 35.545C9.10011 35.3361 9.30362 35.1627 9.55295 35.1046C9.91642 36.0208 10.3418 36.7343 10.8271 37.1166C11.8589 37.9283 13.6969 38.3277 15.542 38.3277C17.5319 38.3277 19.5302 37.8635 20.5358 36.9514C20.8157 36.6981 21.0629 36.2584 21.2793 35.687C21.5599 35.8829 21.706 36.2209 21.5291 36.5267C21.5114 36.6735 21.097 36.9684 20.9482 37.0661C20.488 37.4381 19.9418 37.7133 19.3595 37.9194C19.352 37.9222 19.3138 37.9365 19.2551 37.9583L19.225 37.9693L19.2496 37.9604C19.0236 38.043 18.5259 38.2232 18.3737 38.2574C17.0895 38.5605 15.7637 38.7237 14.4322 38.7421C14.3369 38.7462 14.242 38.7476 14.1468 38.7476Z" fill="black"/>
</svg>
